<?xml version="1.0" standalone="no"?>
<svg xmlns:xlink="http://www.w3.org/1999/xlink" fill="#000000" width="128" height="128" viewBox="0 0 24 24" id="Main" xmlns="http://www.w3.org/2000/svg"><title style="fill: rgb(0, 119, 182);"/><path d="M16.31,14.9A7.92,7.92,0,0,0,18,10a8,8,0,1,0-8,8,7.92,7.92,0,0,0,4.9-1.69l5.39,5.4a1,1,0,0,0,1.42,0,1,1,0,0,0,0-1.42ZM4,10a6,6,0,1,1,6,6A6,6,0,0,1,4,10Z" style="fill: rgb(0, 119, 182);"/><path d="M12,8a1,1,0,0,0,0-2H11A1,1,0,0,0,9,6,2,2,0,0,0,7,8V9a2,2,0,0,0,2,2h2v1H8a1,1,0,0,0,0,2H9a1,1,0,0,0,2,0,2,2,0,0,0,2-2V11a2,2,0,0,0-2-2H9V8Z" style="fill: rgb(0, 119, 182);"/></svg>