<?xml version="1.0" standalone="no"?>
<svg width="128" height="128" viewBox="0 0 512 512" version="1.1" xml:space="preserve" xmlns="http://www.w3.org/2000/svg" xmlns:xlink="http://www.w3.org/1999/xlink">

<g id="_x34_81_x2C__university_x2C__bank_x2C__campus_x2C__court">

<g id="element_cd2db06c">

<path d="M21,161c81.6-44.17,147.51-73.99,233.82-120L491,161h-50H71H21z" style="fill:#EFF3F6;" id="element_ea945405"/>

<path d="M257.486,51.333L473.328,161H491L254.82,41C168.51,87.01,102.6,116.83,21,161h21.961    C115.935,122.297,178.082,93.662,257.486,51.333z" style="fill:#DEE0E0;" id="element_6fe2a007"/>

<polygon points="451,431 451,471 61,471 61,431 91.56,431 420.44,431   " style="fill:#747371;" id="element_9b9869e6"/>

<polygon points="69.667,440.833 100.227,440.833 429.107,440.833 451,440.833 451,431 420.44,431     91.56,431 61,431 61,471 69.667,471   " style="fill:#5B5A57;" id="element_b3f64912"/>

<polygon points="420.44,391 420.44,431 91.56,431 91.56,391 111,391 161,391 231,391 281,391 351,391     401,391   " style="fill:#EFF3F6;" id="element_7359dce4"/>

<polygon points="100.227,399.834 119.667,399.834 169.667,399.834 239.667,399.834 289.667,399.834     359.667,399.834 409.667,399.834 420.44,399.834 420.44,391 401,391 351,391 281,391 231,391 161,391 111,391 91.56,391     91.56,431 100.227,431   " style="fill:#DEE0E0;" id="element_818c1ea4"/>

<polygon points="441,161 441,201 70.45,201 71,161   " style="fill:#747371;" id="element_46573aba"/>

<polygon points="80,171.333 441,171.333 441,161 71,161 70.45,201 79.592,201   " style="fill:#747371;" id="element_98a9d81f"/>

<path d="M401,256v135h-50V256c0-13.81,11.19-25,25-25c6.9,0,13.16,2.8,17.68,7.32    C398.2,242.84,401,249.1,401,256z" style="fill:#F7D794;" id="element_c142030a"/>

<path d="M360.72,263.666c0-13.81,11.19-25,25-25c3.608,0,7.038,0.771,10.138,2.148    c-0.672-0.878-1.397-1.714-2.178-2.495C389.16,233.8,382.9,231,376,231c-13.81,0-25,11.19-25,25v135h9.72V263.666z" style="fill:#E2BF7F;" id="element_20e29cc4"/>

<path d="M281,256v135h-50V256c0-13.81,11.19-25,25-25c6.9,0,13.16,2.8,17.68,7.32    C278.2,242.84,281,249.1,281,256z" style="fill:#F7D794;" id="element_792ed513"/>

<path d="M239.333,265.333c0-13.81,11.19-25,25-25c5.134,0,9.911,1.552,13.883,4.207    c-1.19-2.305-2.722-4.405-4.537-6.22C269.16,233.8,262.9,231,256,231c-13.81,0-25,11.19-25,25v135h8.333V265.333z" style="fill:#E2BF7F;" id="element_2bb79a63"/>

<path d="M161,256v135h-50V256c0-13.81,11.19-25,25-25c6.9,0,13.16,2.8,17.68,7.32S161,249.1,161,256z" style="fill:#F7D794;" id="element_c370790c"/>

<path d="M120.667,266c0-13.81,11.19-25,25-25c4.525,0,8.771,1.21,12.436,3.314    c-1.174-2.217-2.666-4.238-4.422-5.994C149.16,233.8,142.9,231,136,231c-13.81,0-25,11.19-25,25v135h9.667V266z" style="fill:#E2BF7F;" id="element_ca6bfcce"/>

<path d="M256,81c13.81,0,25,11.19,25,25s-11.19,25-25,25c-13.81,0-25-11.19-25-25S242.19,81,256,81z" style="fill:#FCD884;" id="element_e090d5ae"/>

<path d="M238.333,118c0-13.81,11.19-25,25-25c6.471,0,12.365,2.457,16.805,6.489    C277.273,88.838,267.557,81,256,81c-13.81,0-25,11.19-25,25c0,7.339,3.161,13.938,8.195,18.511    C238.636,122.435,238.333,120.253,238.333,118z" style="fill:#EABF6A;" id="element_c657a946"/>

<path d="M441,206H70.45c-1.338,0-2.62-0.536-3.56-1.489c-0.94-0.953-1.458-2.242-1.44-3.58l0.55-40    c0.038-2.738,2.269-4.931,4.998-4.931c0.023,0,0.047,0,0.07,0c2.761,0.038,4.969,2.307,4.931,5.068L75.52,196H436v-35    c0-2.761,2.238-5,5-5s5,2.239,5,5v40C446,203.761,443.762,206,441,206z" id="element_99dd952d"/>

<path d="M91.56,436c-2.761,0-5-2.238-5-5v-40c0-2.762,2.239-5,5-5H111c2.761,0,5,2.238,5,5s-2.239,5-5,5H96.56v35    C96.56,433.762,94.321,436,91.56,436z" id="element_371b87d8"/>

<path d="M231,396h-70c-2.761,0-5-2.238-5-5s2.239-5,5-5h70c2.761,0,5,2.238,5,5S233.761,396,231,396z" id="element_5013b0fa"/>

<path d="M351,396h-70c-2.762,0-5-2.238-5-5s2.238-5,5-5h70c2.762,0,5,2.238,5,5S353.762,396,351,396z" id="element_77883a14"/>

<path d="M420.44,436c-2.762,0-5-2.238-5-5v-35H401c-2.762,0-5-2.238-5-5s2.238-5,5-5h19.44c2.762,0,5,2.238,5,5v40    C425.44,433.762,423.202,436,420.44,436z" id="element_f0473dff"/>

<path d="M161,396h-50c-2.761,0-5-2.238-5-5V256c0-16.542,13.458-30,30-30c8.017,0,15.551,3.12,21.216,8.784S166,247.983,166,256    v135C166,393.762,163.761,396,161,396z M116,386h40V256c0-5.345-2.08-10.369-5.855-14.145S141.345,236,136,236    c-11.028,0-20,8.972-20,20V386z" id="element_15da4b53"/>

<path d="M491,166H21c-2.289,0-4.285-1.554-4.847-3.772c-0.562-2.218,0.455-4.535,2.467-5.625    c42.55-23.032,80.129-41.813,119.914-61.697c35.698-17.841,72.612-36.29,113.934-58.318c1.44-0.768,3.163-0.784,4.617-0.045    l236.18,120c2.063,1.047,3.137,3.373,2.598,5.622C495.324,164.414,493.313,166,491,166z M40.902,156h429.219L254.874,46.636    c-40.511,21.551-76.775,39.675-111.87,57.215C108.847,120.922,76.319,137.179,40.902,156z" id="element_fb4fd7a3"/>

<path d="M281,396h-50c-2.761,0-5-2.238-5-5V256c0-16.542,13.458-30,30-30c8.017,0,15.552,3.12,21.216,8.785    C282.88,240.449,286,247.983,286,256v135C286,393.762,283.762,396,281,396z M236,386h40V256c0-5.346-2.079-10.369-5.855-14.145    S261.346,236,256,236c-11.028,0-20,8.972-20,20V386z" id="element_b2dcfb12"/>

<path d="M401,396h-50c-2.762,0-5-2.238-5-5V256c0-16.542,13.458-30,30-30c8.017,0,15.552,3.12,21.216,8.785    C402.88,240.449,406,247.983,406,256v135C406,393.762,403.762,396,401,396z M356,386h40V256c0-5.346-2.079-10.369-5.855-14.145    S381.346,236,376,236c-11.028,0-20,8.972-20,20V386z" id="element_5e0de01e"/>

<path d="M451,476c-2.762,0-5-2.238-5-5v-35H66v35c0,2.762-2.239,5-5,5s-5-2.238-5-5v-40c0-2.762,2.239-5,5-5h390    c2.762,0,5,2.238,5,5v40C456,473.762,453.762,476,451,476z" id="element_93a457eb"/>

<path d="M256,136c-16.542,0-30-13.458-30-30s13.458-30,30-30s30,13.458,30,30S272.542,136,256,136z M256,86    c-11.028,0-20,8.972-20,20s8.972,20,20,20c11.028,0,20-8.972,20-20S267.028,86,256,86z" id="element_763c7cd3"/>

<path d="M146,137.33H76c-2.761,0-5-2.239-5-5s2.239-5,5-5h70c2.761,0,5,2.239,5,5S148.761,137.33,146,137.33z" id="element_152d10fd"/>

<path d="M491,476H21c-2.761,0-5-2.238-5-5s2.239-5,5-5h470c2.762,0,5,2.238,5,5S493.762,476,491,476z" id="element_44223deb"/>

</g>

</g>

<g id="Layer_1"/>

</svg>